<?xml version="1.0" standalone="no"?>
<!DOCTYPE svg PUBLIC "-//W3C//DTD SVG 20010904//EN"
 "http://www.w3.org/TR/2001/REC-SVG-20010904/DTD/svg10.dtd">
<svg version="1.0" xmlns="http://www.w3.org/2000/svg"
 width="502.000000pt" height="502.000000pt" viewBox="0 0 502.000000 502.000000"
 preserveAspectRatio="xMidYMid meet">
<metadata>
Created by potrace 1.11, written by Peter Selinger 2001-2013
</metadata>
<g transform="translate(0.000000,502.000000) scale(0.100000,-0.100000)"
fill="#000000" stroke="none">
<path d="M4567 4386 c-25 -14 -58 -32 -72 -42 -28 -18 -33 -10 -9 17 17 19 12
39 -10 39 -8 0 -21 -11 -30 -24 -9 -14 -51 -51 -93 -84 -105 -79 -815 -548
-1022 -674 -196 -120 -195 -119 -143 -107 115 26 228 88 835 462 172 106 361
222 421 258 130 76 203 138 193 162 -8 22 -16 22 -70 -7z m-47 -71 c0 -2 -10
-9 -22 -15 -22 -11 -22 -10 -4 4 21 17 26 19 26 11z m-335 -204 c-9 -8 -353
-237 -382 -255 -7 -4 -13 -5 -13 -2 0 3 89 64 197 136 178 118 225 147 198
121z"/>
<path d="M3862 4250 c-13 -16 -80 -60 -155 -100 -188 -102 -497 -293 -497
-307 0 -7 3 -13 6 -13 3 0 74 44 158 97 208 133 390 226 430 220 25 -4 39 2
71 31 22 20 41 43 41 52 1 8 3 22 5 30 7 27 -35 21 -59 -10z"/>
<path d="M3190 4170 c-85 -44 -171 -94 -190 -110 l-35 -31 40 16 c76 31 88 36
91 33 1 -2 -51 -32 -117 -67 -66 -36 -166 -93 -222 -128 -56 -35 -139 -82
-184 -104 -46 -22 -83 -44 -83 -50 0 -38 91 -1 280 113 69 42 208 117 309 168
194 97 241 125 241 147 0 7 15 22 33 33 45 26 58 40 52 51 -14 22 -69 3 -215
-71z"/>
<path d="M4348 4030 c-15 -4 -73 -44 -130 -89 -103 -82 -122 -93 -112 -67 13
34 -18 22 -55 -23 -22 -26 -75 -72 -118 -101 -43 -29 -82 -58 -88 -63 -5 -5
71 32 169 83 107 55 221 124 282 169 119 88 135 116 52 91z"/>
<path d="M2758 4003 c-75 -23 -90 -34 -68 -48 11 -7 103 33 135 59 25 19 27
19 -67 -11z"/>
<path d="M4365 3874 c-82 -69 -203 -160 -268 -202 -202 -131 -326 -220 -498
-358 -180 -144 -490 -366 -744 -532 -138 -90 -217 -146 -165 -117 67 38 295
190 477 317 121 85 276 190 344 233 201 127 246 158 409 287 85 68 205 157
265 198 60 41 123 90 140 108 17 17 36 32 41 32 15 0 169 130 172 146 8 32
-31 7 -173 -112z"/>
<path d="M3245 3794 c-41 -26 -78 -43 -88 -40 -12 3 -56 -22 -120 -66 -105
-72 -147 -109 -147 -128 0 -17 18 -11 69 23 211 140 384 264 359 256 -2 0 -34
-21 -73 -45z"/>
<path d="M3137 3804 c-3 -3 -25 -10 -48 -15 -47 -11 -72 -26 -63 -40 16 -27
108 5 117 41 5 21 4 24 -6 14z"/>
<path d="M4320 3712 c-74 -54 -223 -167 -329 -250 -107 -84 -292 -218 -410
-299 -119 -80 -281 -191 -361 -247 -80 -55 -242 -166 -360 -246 -232 -156
-500 -356 -500 -371 0 -32 42 -10 172 89 78 60 256 186 393 279 138 94 327
222 420 287 94 64 242 165 330 226 88 60 232 166 320 235 88 69 232 178 320
242 164 120 177 131 169 145 -11 17 -34 4 -164 -90z"/>
<path d="M4820 3713 c-30 -14 -63 -25 -72 -24 -10 1 -49 -19 -87 -46 -66 -45
-69 -48 -49 -59 18 -10 27 -9 47 4 50 32 -105 -132 -184 -195 -44 -36 -165
-121 -270 -190 -104 -69 -253 -170 -330 -223 -77 -53 -230 -152 -340 -219
-160 -98 -729 -480 -754 -507 -3 -4 19 6 49 21 72 36 66 31 -66 -58 -203 -135
-343 -241 -344 -259 0 -10 5 -18 11 -18 6 0 65 40 132 88 67 49 211 148 321
221 109 73 253 172 320 220 66 48 227 161 356 251 129 89 327 231 440 314 113
84 243 174 289 202 104 61 231 162 379 300 73 69 135 118 175 138 35 17 63 39
65 49 5 25 -23 22 -88 -10z"/>
<path d="M3750 3568 c-129 -77 -285 -175 -346 -218 -130 -92 -204 -131 -248
-132 -17 0 -54 -11 -83 -24 -29 -13 -63 -28 -78 -34 -39 -15 -33 -41 8 -33 50
9 22 -10 -61 -42 -78 -30 -91 -40 -74 -57 13 -13 129 31 284 108 138 69 848
545 848 569 0 11 -23 -2 -250 -137z m-571 -372 c-10 -9 -69 -36 -69 -32 0 7
52 35 64 36 5 0 7 -2 5 -4z"/>
<path d="M2035 3634 c-52 -10 -102 -28 -145 -51 -36 -20 -110 -60 -165 -89
-113 -59 -163 -97 -194 -149 -11 -20 -17 -33 -11 -30 14 8 13 -2 -5 -62 -13
-44 -20 -52 -54 -65 -73 -29 -89 -98 -26 -114 21 -5 25 -12 25 -41 0 -27 -3
-34 -15 -29 -8 3 -26 2 -38 -3 -13 -5 -42 -6 -64 -1 -23 4 -46 4 -52 1 -5 -4
-12 -60 -14 -126 -5 -126 -15 -235 -48 -500 -33 -276 -49 -453 -60 -670 -21
-431 -19 -413 -38 -418 -26 -6 -175 154 -365 393 -103 129 -280 395 -301 450
-20 52 -78 110 -110 110 -13 0 -41 -7 -63 -14 -25 -9 -44 -11 -47 -5 -11 17
-45 10 -45 -10 0 -21 -26 -36 -35 -21 -15 24 -33 8 -37 -31 -3 -32 3 -53 28
-99 52 -93 211 -327 293 -431 42 -52 107 -135 145 -184 39 -49 101 -143 139
-209 38 -67 95 -155 126 -196 117 -152 197 -283 232 -378 7 -19 22 -38 35 -43
45 -17 235 30 258 63 11 15 13 37 9 82 -3 41 0 82 11 124 11 40 15 79 11 105
-4 23 -2 71 4 107 6 35 15 186 21 335 6 148 17 344 25 435 8 91 19 224 25 295
15 186 32 325 40 325 20 0 90 -238 134 -455 14 -66 43 -192 65 -280 22 -88 45
-182 51 -210 22 -100 31 -125 45 -125 8 0 17 -11 21 -25 3 -14 15 -30 26 -36
19 -10 33 -7 165 38 56 19 93 50 93 77 0 38 -156 662 -198 791 -55 170 -57
179 -35 170 10 -4 34 -9 53 -12 19 -2 51 -6 70 -9 28 -4 51 4 113 38 143 79
375 254 483 365 97 99 104 109 160 231 49 108 58 138 62 197 3 65 1 73 -27
116 -17 26 -59 76 -94 113 -57 61 -65 66 -104 66 -29 0 -72 15 -146 51 l-105
51 -124 4 c-82 2 -150 -2 -203 -12z m371 -364 c92 -19 113 -30 114 -55 0 -6
-15 -42 -33 -80 -49 -101 -162 -218 -302 -310 -62 -41 -118 -81 -125 -90 -8
-9 -27 -23 -44 -32 -17 -9 -40 -25 -51 -35 -15 -15 -79 -43 -131 -58 -1 0 -4
19 -7 43 -4 23 -16 103 -27 177 -11 74 -20 156 -20 181 0 61 27 148 48 156 9
4 34 18 54 31 31 20 41 22 53 12 12 -10 24 -9 62 4 25 9 57 16 70 16 13 0 42
9 65 21 38 19 101 35 154 38 12 0 66 -8 120 -19z"/>
<path d="M4514 3546 c-21 -12 -133 -76 -247 -141 -189 -107 -230 -135 -214
-151 3 -3 76 36 163 86 229 133 232 133 129 34 -93 -89 -81 -89 40 2 98 74
185 153 185 169 0 24 -15 24 -56 1z"/>
<path d="M3071 3466 c-7 -8 -43 -33 -82 -56 -38 -22 -69 -47 -69 -55 0 -22 25
-18 68 8 20 13 68 39 106 58 65 32 67 34 37 37 -17 2 -31 7 -31 13 0 14 -16
11 -29 -5z"/>
<path d="M4620 3209 c-19 -12 -53 -38 -75 -59 -60 -57 -278 -217 -480 -353
-99 -66 -232 -159 -295 -207 -63 -48 -151 -113 -195 -147 -44 -33 -147 -102
-229 -153 -83 -52 -202 -133 -266 -180 -64 -47 -155 -105 -202 -128 -47 -23
-116 -65 -154 -93 -38 -28 -95 -67 -126 -86 -55 -34 -75 -63 -43 -63 30 0 13
-17 -45 -45 -56 -27 -73 -46 -50 -60 8 -5 283 125 276 132 -1 2 -28 -2 -60 -8
-41 -9 -60 -9 -68 -1 -22 22 0 39 56 44 95 8 238 93 576 343 91 67 233 167
315 221 83 55 254 170 380 256 127 85 290 193 363 238 73 45 190 130 260 188
70 58 142 114 160 125 38 22 37 43 -2 40 -14 -1 -26 2 -26 8 0 15 -33 10 -70
-12z m-30 -73 c0 -2 -8 -10 -17 -17 -16 -13 -17 -12 -4 4 13 16 21 21 21 13z
m-40 -29 c0 -2 -15 -16 -32 -33 l-33 -29 29 33 c28 30 36 37 36 29z m-70 -60
c0 -2 -12 -14 -27 -28 l-28 -24 24 28 c23 25 31 32 31 24z m-630 -441 c0 -2
-8 -10 -17 -17 -16 -13 -17 -12 -4 4 13 16 21 21 21 13z m-76 -64 c-41 -36
-179 -136 -159 -114 15 17 189 152 195 151 3 0 -14 -17 -36 -37z m-844 -576
c0 -5 -83 -57 -155 -96 l-60 -32 34 28 c18 16 66 46 105 66 74 40 76 40 76 34z"/>
<path d="M2658 2592 c-136 -84 -338 -230 -338 -243 0 -22 35 -4 142 72 133 96
308 229 308 235 0 7 -3 5 -112 -64z"/>
<path d="M2426 2484 c-25 -19 -46 -38 -46 -43 0 -21 16 -18 57 11 58 42 67 54
49 61 -8 3 -35 -10 -60 -29z"/>
<path d="M2531 2169 c-47 -22 -61 -33 -53 -41 14 -14 55 3 102 43 42 36 33 36
-49 -2z"/>
</g>
</svg>
