<?xml version="1.0" standalone="no"?>
<!DOCTYPE svg PUBLIC "-//W3C//DTD SVG 20010904//EN"
 "http://www.w3.org/TR/2001/REC-SVG-20010904/DTD/svg10.dtd">
<svg version="1.0" xmlns="http://www.w3.org/2000/svg"
 width="491.000000pt" height="491.000000pt" viewBox="0 0 491.000000 491.000000"
 preserveAspectRatio="xMidYMid meet">
<metadata>
Created by potrace 1.11, written by Peter Selinger 2001-2013
</metadata>
<g transform="translate(0.000000,491.000000) scale(0.100000,-0.100000)"
fill="#000000" stroke="none">
<path d="M1795 4204 c-369 -266 -719 -520 -780 -563 -60 -44 -186 -135 -280
-202 -93 -67 -192 -139 -220 -159 -27 -20 -124 -90 -215 -155 -91 -65 -168
-121 -172 -124 -4 -4 8 -54 26 -111 37 -115 174 -542 238 -740 22 -69 48 -150
58 -180 32 -95 178 -552 200 -625 12 -38 25 -79 30 -90 5 -11 39 -114 75 -230
139 -438 247 -770 255 -778 4 -5 657 -10 1452 -13 l1445 -4 28 88 c16 48 72
220 125 382 54 162 159 484 235 715 75 231 142 434 148 450 7 17 12 32 12 35
1 3 36 111 79 240 181 550 259 787 267 813 7 26 4 31 -54 73 -34 25 -73 54
-87 64 -69 52 -1466 1071 -1608 1174 -24 17 -55 40 -70 52 -61 46 -469 342
-492 356 -25 15 -34 9 -695 -468z"/>
</g>
</svg>
