<?xml version="1.0" standalone="no"?>
<!DOCTYPE svg PUBLIC "-//W3C//DTD SVG 20010904//EN"
 "http://www.w3.org/TR/2001/REC-SVG-20010904/DTD/svg10.dtd">
<svg version="1.0" xmlns="http://www.w3.org/2000/svg"
 width="515.000000pt" height="515.000000pt" viewBox="0 0 515.000000 515.000000"
 preserveAspectRatio="xMidYMid meet">
<metadata>
Created by potrace 1.11, written by Peter Selinger 2001-2013
</metadata>
<g transform="translate(0.000000,515.000000) scale(0.100000,-0.100000)"
fill="#000000" stroke="none">
<path d="M4575 4409 c-54 -27 -73 -34 -61 -20 13 14 15 24 8 37 -9 15 -15 12
-57 -30 -56 -58 -187 -153 -356 -261 -68 -44 -230 -150 -359 -236 -129 -86
-266 -175 -305 -198 -38 -23 -108 -66 -155 -95 -47 -29 -107 -61 -133 -71 -26
-10 -52 -26 -57 -36 -5 -9 -40 -34 -77 -55 -76 -42 -87 -53 -71 -71 9 -11 19
-8 54 12 50 29 54 30 54 10 0 -28 33 -15 164 61 72 42 181 102 241 133 103 54
205 114 438 260 165 103 329 190 498 266 57 26 118 53 134 60 17 8 60 27 98
44 51 23 67 35 67 50 0 24 -17 26 -75 9 -22 -6 -42 -12 -45 -13 -15 -3 -58
-17 -75 -25 -50 -21 -102 -44 -127 -57 -16 -7 -28 -9 -28 -4 0 5 6 11 13 13
31 8 228 134 270 173 50 46 55 56 34 74 -10 8 -33 1 -92 -30z"/>
<path d="M3318 4346 c-197 -136 -293 -201 -313 -213 -58 -35 -150 -76 -211
-93 -37 -11 -75 -27 -83 -35 -14 -14 -14 -16 7 -22 19 -5 12 -11 -51 -47 -41
-23 -88 -48 -105 -55 -17 -7 -34 -21 -37 -31 -4 -11 -26 -25 -55 -35 -55 -18
-68 -31 -51 -48 8 -8 32 -4 91 15 83 27 106 29 45 4 -38 -16 -48 -46 -15 -46
27 0 149 62 285 145 61 36 184 104 275 149 217 109 250 128 250 152 0 6 18 19
40 30 39 19 57 44 45 64 -12 19 -51 9 -149 -40 -55 -27 -101 -48 -103 -47 -1
2 30 23 70 47 40 24 74 47 77 50 3 3 29 23 58 45 32 24 50 45 47 53 -3 8 -5
16 -5 18 0 12 -27 -2 -112 -60z m-347 -321 c-51 -30 -96 -55 -98 -55 -13 0 55
46 111 76 98 52 90 39 -13 -21z"/>
<path d="M3897 4287 c-18 -17 -42 -37 -52 -43 -11 -6 -56 -30 -100 -54 -107
-57 -223 -125 -379 -221 -71 -43 -135 -79 -142 -79 -7 0 -19 -8 -26 -17 -22
-30 -45 -44 -80 -50 -47 -7 -70 -22 -66 -41 2 -12 13 -17 36 -17 38 0 39 1
-63 -70 -31 -22 -70 -53 -87 -69 -27 -27 -28 -30 -13 -45 10 -10 18 -12 23 -6
18 27 69 53 93 48 28 -5 104 43 416 265 94 67 176 122 181 122 6 0 12 3 14 8
4 8 130 85 171 103 15 7 27 16 27 21 0 10 59 71 83 85 8 4 17 24 21 44 9 52
-15 58 -57 16z m-742 -507 c-3 -5 -12 -10 -18 -10 -7 0 -6 4 3 10 19 12 23 12
15 0z"/>
<path d="M4370 4058 c-25 -13 -84 -53 -132 -90 -64 -50 -88 -63 -92 -52 -10
25 -30 15 -73 -35 -44 -50 -185 -151 -338 -241 -49 -30 -153 -95 -230 -146
-77 -51 -187 -116 -245 -145 -58 -28 -106 -53 -108 -55 -3 -2 -9 -25 -11 -45
-1 -3 -33 -19 -72 -34 -39 -16 -74 -35 -77 -43 -7 -19 19 -34 35 -20 7 6 13 6
13 1 0 -5 -19 -17 -42 -27 -90 -37 -108 -46 -108 -56 0 -22 29 -20 93 4 93 35
260 117 340 168 91 58 504 336 547 368 154 117 194 143 260 175 129 62 141 70
151 88 8 14 5 19 -12 25 -23 9 -15 17 138 126 28 19 31 25 20 40 -11 16 -15
15 -57 -6z"/>
<path d="M4488 3988 c-35 -29 -65 -55 -68 -58 -3 -3 -50 -42 -105 -86 -91 -72
-141 -107 -330 -230 -103 -66 -194 -133 -397 -294 -108 -85 -265 -202 -348
-260 -84 -58 -157 -110 -164 -116 -6 -6 -22 -17 -36 -24 -13 -7 -29 -17 -34
-22 -6 -5 -113 -76 -238 -158 -219 -143 -368 -253 -368 -271 0 -4 5 -11 11
-14 6 -4 -3 -17 -23 -31 -43 -32 -52 -50 -31 -58 19 -8 30 -1 324 220 119 89
274 202 345 250 71 49 192 134 269 189 121 87 439 295 451 295 7 0 129 94 132
102 2 5 8 8 13 8 5 0 17 8 28 18 10 9 35 31 56 47 21 17 43 35 49 40 16 16
310 227 348 250 25 16 33 27 33 50 0 24 9 37 45 65 25 19 50 39 56 45 7 6 26
24 44 38 19 17 30 33 26 42 -9 24 -21 18 -88 -37z"/>
<path d="M4448 3815 c-15 -14 -31 -25 -37 -25 -5 0 -11 -4 -13 -8 -1 -4 -32
-28 -68 -52 -35 -25 -71 -50 -80 -57 -14 -11 -145 -114 -215 -169 -16 -12 -64
-49 -105 -81 -96 -75 -229 -169 -455 -321 -99 -66 -208 -140 -241 -164 -34
-24 -97 -67 -140 -97 -44 -30 -80 -58 -82 -63 -2 -4 -8 -8 -12 -8 -9 0 -279
-178 -290 -190 -3 -4 -34 -26 -70 -51 -36 -24 -67 -46 -70 -49 -3 -3 -44 -36
-92 -74 -84 -65 -107 -96 -71 -96 15 0 68 35 103 68 31 29 210 158 335 241
151 101 309 209 380 261 28 20 162 112 299 204 137 93 254 172 260 177 6 5 63
47 126 94 63 47 122 91 130 98 126 101 229 180 343 261 75 55 137 105 137 113
0 22 -43 15 -72 -12z"/>
<path d="M4848 3748 c-33 -15 -64 -26 -68 -23 -5 3 -51 -23 -102 -58 -51 -35
-122 -79 -158 -99 -136 -75 -161 -89 -300 -170 -79 -46 -145 -89 -148 -96 -9
-29 31 -21 100 19 110 65 147 86 213 120 l60 31 -50 -47 c-105 -97 -155 -136
-325 -250 -314 -212 -403 -270 -565 -370 -88 -54 -209 -132 -270 -173 -60 -42
-146 -100 -190 -130 -44 -31 -107 -74 -140 -96 -33 -23 -62 -43 -65 -46 -20
-22 -180 -113 -247 -141 -45 -19 -85 -40 -88 -48 -10 -25 10 -32 47 -17 24 11
38 12 46 4 7 -7 28 2 69 30 57 39 183 106 183 98 0 -2 -21 -17 -47 -32 -26
-15 -52 -31 -58 -36 -5 -5 -48 -35 -95 -68 -177 -124 -214 -155 -205 -170 12
-19 33 -9 116 53 46 35 202 143 346 239 144 97 267 181 275 187 7 7 51 39 98
72 47 33 93 66 102 74 10 8 37 26 60 41 23 15 46 30 52 35 6 5 72 51 146 102
145 100 308 218 460 333 52 39 118 84 145 99 66 36 232 147 270 180 17 14 55
48 85 74 30 27 78 70 105 97 74 72 135 118 183 139 49 21 65 37 57 57 -8 21
-29 18 -97 -14z"/>
<path d="M2182 3673 c-7 -10 -10 -12 -7 -5 9 17 -5 15 -29 -5 -18 -16 -19 -16
-8 -1 12 15 11 17 -7 15 -12 -1 -21 -4 -21 -7 0 -3 -16 -5 -35 -5 -19 1 -35
-2 -35 -7 0 -5 -8 -5 -17 0 -17 10 -39 2 -75 -26 -9 -8 -22 -11 -29 -6 -8 4
-10 3 -5 -4 4 -7 2 -12 -4 -12 -7 0 -9 -7 -6 -16 5 -14 4 -15 -9 -4 -10 8 -15
9 -15 1 0 -6 -11 -11 -25 -11 -14 0 -25 -5 -25 -11 0 -5 5 -7 12 -3 7 4 8 3 4
-5 -5 -8 -12 -9 -20 -2 -9 7 -19 6 -33 -4 -11 -8 -22 -13 -24 -12 -2 1 2 -3 9
-9 10 -9 9 -13 -4 -18 -9 -4 -19 -4 -22 -1 -3 3 1 5 9 5 10 1 8 4 -4 11 -14 8
-22 8 -30 -1 -9 -10 -9 -11 0 -6 9 5 11 2 7 -8 -3 -8 -12 -12 -20 -9 -8 3 -11
9 -8 15 3 5 -3 4 -15 -4 -11 -7 -23 -19 -26 -26 -3 -8 0 -10 7 -6 7 5 8 3 3
-6 -6 -10 -11 -10 -20 4 -11 15 -13 15 -19 1 -3 -9 -11 -13 -16 -10 -6 4 -10
3 -9 -2 4 -23 -2 -35 -17 -29 -8 3 -12 2 -9 -4 7 -11 -29 -32 -40 -22 -5 4 -5
1 -1 -6 4 -7 12 -10 17 -7 5 4 9 1 9 -6 0 -7 3 -9 8 -5 4 4 7 12 7 17 0 5 5 9
10 10 6 0 13 7 18 14 8 15 37 9 37 -7 0 -6 -8 -4 -17 3 -15 12 -16 12 -10 -4
4 -10 3 -16 -2 -13 -4 3 -19 -6 -31 -19 -13 -14 -19 -25 -13 -25 6 0 16 7 23
15 7 9 15 13 18 10 3 -3 10 0 17 5 8 7 12 5 12 -4 0 -8 -7 -13 -16 -11 -20 3
-53 -24 -44 -38 3 -5 2 -8 -3 -4 -5 3 -20 -11 -33 -30 -15 -24 -18 -34 -9 -30
8 3 15 -1 15 -8 0 -8 -7 -11 -15 -7 -10 3 -13 1 -8 -6 4 -7 2 -20 -3 -29 -6
-11 -11 -13 -11 -5 0 7 -5 10 -10 7 -6 -4 -7 -11 -4 -17 4 -7 2 -8 -4 -4 -11
7 -17 -6 -13 -27 1 -5 -3 -6 -8 -2 -6 3 -7 13 -4 22 4 10 2 14 -5 9 -6 -3 -14
-1 -18 5 -5 8 -3 9 6 4 9 -6 11 -4 5 5 -5 9 -4 11 3 6 8 -5 10 -1 5 10 -5 13
-2 16 9 12 8 -4 15 -1 15 7 0 7 -7 11 -16 8 -12 -4 -13 -3 -3 5 8 5 13 13 13
18 -1 5 3 9 9 9 5 0 15 6 22 14 11 11 9 12 -11 6 -18 -6 -22 -4 -16 6 5 8 -1
6 -13 -4 -12 -11 -18 -25 -15 -35 5 -11 3 -13 -7 -7 -8 5 -11 4 -6 -3 3 -6 -2
-15 -11 -21 -10 -5 -14 -13 -10 -17 5 -5 12 -2 17 6 6 9 10 10 10 3 0 -6 -4
-15 -10 -18 -6 -4 -4 -17 5 -35 17 -32 4 -50 -20 -30 -11 10 -15 10 -15 1 0
-7 -4 -9 -10 -6 -6 4 -7 -2 -1 -17 5 -13 15 -22 22 -20 10 2 10 0 1 -11 -10
-12 -7 -18 15 -31 l28 -17 -24 20 c-13 12 -18 22 -12 22 6 1 16 3 21 4 6 1 13
3 18 4 4 1 0 6 -8 11 -12 7 -10 9 7 7 17 -1 19 -4 11 -14 -6 -7 -7 -13 -3 -13
4 0 1 -8 -6 -17 -12 -15 -12 -16 3 -10 10 3 22 -1 30 -11 10 -12 10 -14 0 -8
-7 4 -15 1 -19 -9 -3 -10 -1 -20 6 -24 7 -4 -1 -8 -18 -8 -17 0 -33 7 -35 14
-4 9 -1 11 7 7 7 -5 6 0 -3 12 -14 18 -14 18 2 5 10 -7 15 -18 11 -24 -3 -6
-1 -7 6 -3 6 4 9 11 6 16 -3 4 -2 10 2 13 5 2 3 2 -4 1 -7 -2 -15 1 -18 6 -12
20 -25 9 -21 -16 4 -23 2 -25 -17 -21 -20 5 -20 5 -5 -7 15 -11 14 -13 -13
-13 -19 0 -25 3 -17 9 7 4 11 8 8 8 -43 7 -72 6 -76 -4 -2 -6 -5 -31 -7 -56
-1 -25 -6 -50 -10 -56 -3 -6 -3 -14 0 -18 10 -10 11 -66 1 -60 -4 3 -8 1 -8
-5 0 -5 6 -12 13 -15 10 -5 10 -7 0 -12 -7 -3 -13 -10 -13 -15 0 -6 6 -7 13
-2 7 4 5 -3 -4 -18 -9 -13 -16 -36 -15 -49 1 -14 -2 -33 -7 -44 -7 -14 -6 -17
5 -10 11 6 11 5 0 -8 -10 -13 -10 -17 0 -21 10 -4 10 -6 -1 -6 -10 -1 -11 -4
-2 -15 9 -11 9 -16 0 -22 -8 -5 -9 -3 -4 6 6 9 4 11 -5 5 -11 -7 -11 -10 2
-18 14 -9 14 -12 0 -28 -18 -21 -26 -59 -13 -59 6 0 8 9 6 21 -3 17 -1 19 9 9
22 -18 12 -45 -15 -42 -13 1 -19 -1 -14 -5 12 -9 18 -31 17 -56 0 -9 3 -15 8
-12 5 3 12 1 15 -5 4 -6 3 -10 -2 -9 -20 3 -25 -2 -14 -15 9 -11 9 -16 0 -22
-8 -4 -9 -3 -5 4 4 7 2 12 -4 12 -7 0 -10 6 -7 13 3 8 0 14 -7 14 -15 0 -14
-24 1 -51 6 -10 8 -27 6 -37 -3 -11 0 -19 6 -19 6 0 11 -5 11 -10 0 -6 -11 -3
-25 6 -23 15 -25 15 -19 0 3 -9 10 -16 15 -16 5 0 9 -7 9 -15 0 -8 -5 -15 -11
-15 -5 0 -7 4 -4 10 4 6 -1 7 -11 3 -15 -5 -15 -7 0 -15 9 -5 14 -14 11 -19
-4 -5 -11 -6 -17 -3 -6 4 -6 -2 1 -15 7 -11 8 -21 4 -22 -4 0 1 -4 12 -9 15
-7 16 -9 4 -9 -9 -1 -19 -10 -22 -21 -3 -11 -2 -18 2 -16 4 3 13 1 21 -5 12
-7 10 -9 -7 -9 -17 0 -21 -5 -18 -25 1 -14 -3 -25 -9 -25 -6 0 -3 -5 7 -11 9
-5 17 -18 17 -27 0 -15 -2 -15 -11 -2 -8 12 -9 10 -7 -10 2 -20 8 -25 30 -24
15 1 25 -3 22 -8 -3 -4 -10 -6 -15 -2 -5 3 -17 0 -26 -8 -12 -9 -15 -9 -9 -1
5 9 2 11 -8 7 -14 -5 -13 -8 2 -23 10 -9 13 -13 6 -8 -7 4 -14 1 -18 -8 -3 -9
-2 -14 3 -11 5 3 9 -5 9 -19 0 -14 -3 -23 -7 -21 -14 9 -6 -69 7 -80 12 -9 13
-12 2 -19 -9 -5 -11 -4 -6 3 4 7 3 12 -2 12 -18 0 -21 -40 -4 -50 10 -5 12
-10 6 -10 -7 0 -14 -11 -16 -25 -4 -19 1 -31 21 -46 l26 -20 -35 17 c-23 10
-31 12 -22 3 18 -19 15 -39 -5 -33 -15 5 -15 4 -3 -4 8 -6 18 -8 22 -6 4 3 5
-2 2 -10 -4 -10 -1 -16 7 -16 7 0 9 -3 6 -6 -4 -4 -13 -1 -22 6 -8 7 -15 8
-15 3 0 -6 10 -15 23 -22 21 -11 21 -11 1 -7 -16 2 -21 -1 -19 -13 1 -9 -3
-20 -9 -24 -7 -6 -6 -7 4 -4 8 2 14 10 12 17 -2 10 0 11 11 2 10 -9 17 -9 27
1 12 10 12 9 1 -5 -7 -10 -17 -15 -22 -12 -5 3 -9 1 -9 -5 0 -5 3 -11 8 -14 4
-2 2 -3 -5 -1 -14 3 -23 -29 -17 -61 3 -20 1 -23 -13 -18 -16 5 -16 4 1 -9 14
-11 16 -17 7 -22 -9 -6 -7 -17 9 -42 11 -20 15 -32 8 -28 -8 5 -9 2 -5 -9 3
-10 4 -17 2 -17 -12 0 -55 24 -55 32 0 4 -6 8 -12 8 -7 0 1 -13 17 -28 17 -15
29 -26 26 -25 -2 2 -10 -5 -18 -15 -13 -15 -14 -15 -10 -1 3 9 -1 26 -9 38
-12 17 -19 19 -34 11 -34 -18 -36 -10 -2 10 38 23 39 25 12 27 -13 1 -18 -2
-13 -10 8 -13 -28 12 -39 28 -5 6 -8 4 -8 -4 0 -8 -3 -12 -6 -8 -3 3 -3 11 1
17 5 8 12 7 24 -4 12 -11 20 -12 31 -5 12 9 12 10 -2 5 -18 -5 -22 3 -19 34 2
13 1 13 -8 0 -7 -10 -11 -11 -11 -2 0 6 -5 12 -11 12 -5 0 -8 -4 -5 -9 3 -5
-1 -14 -8 -20 -10 -9 -16 -9 -21 -1 -4 6 -4 14 -1 17 3 4 6 1 6 -6 0 -7 4 -10
9 -7 13 9 6 71 -8 68 -7 -1 -15 7 -18 18 -3 11 -9 17 -14 14 -5 -3 -9 0 -9 6
0 6 -5 8 -10 5 -5 -3 -11 -1 -11 4 -1 6 -2 15 -3 19 -2 18 -51 60 -63 55 -7
-3 -13 0 -13 6 0 6 5 11 10 11 6 0 0 11 -12 24 -13 13 -27 21 -32 18 -5 -3 -7
2 -3 11 4 11 2 14 -9 10 -10 -3 -14 2 -14 18 0 20 -2 21 -11 9 -9 -12 -10 -10
-6 8 5 20 3 22 -11 10 -10 -8 -13 -8 -9 -1 4 6 0 18 -8 26 -8 9 -15 24 -16 34
0 10 -3 13 -6 6 -8 -20 -22 -15 -16 6 3 10 -1 22 -8 26 -7 5 -10 4 -5 -3 3 -6
2 -13 -3 -16 -5 -4 -8 6 -6 21 2 22 1 24 -9 12 -10 -13 -13 -13 -28 3 -11 11
-13 18 -6 18 9 0 9 3 1 11 -6 6 -9 18 -6 25 6 17 -15 46 -28 38 -8 -5 -14 17
-10 39 2 12 -17 8 -22 -5 -2 -7 -4 0 -4 15 -1 33 -11 47 -22 28 -6 -9 -11 -10
-15 -2 -4 6 -2 11 3 11 15 0 9 22 -9 37 -8 7 -11 13 -7 13 4 0 -4 12 -18 27
-14 15 -25 31 -25 35 0 19 -2 24 -16 40 -10 11 -12 18 -5 23 10 6 15 -1 12
-17 0 -5 3 -8 9 -8 16 0 12 27 -6 34 -8 3 -12 11 -8 17 4 7 3 9 -3 6 -6 -4
-14 0 -17 9 -3 8 -10 12 -16 9 -5 -3 -10 -2 -10 4 0 6 -6 8 -14 5 -9 -4 -13 2
-12 18 1 19 -4 23 -29 23 -16 -1 -33 4 -37 10 -5 7 -8 6 -8 -1 0 -6 -11 -10
-25 -9 -14 2 -23 -1 -20 -5 3 -5 12 -7 19 -4 8 3 17 -1 22 -8 4 -7 4 -10 -1
-6 -4 4 -14 3 -21 -3 -8 -7 -14 -7 -19 1 -8 13 -25 13 -25 0 0 -6 5 -9 11 -8
6 2 13 -5 14 -15 3 -15 1 -15 -23 3 -27 22 -41 17 -47 -16 -2 -11 -4 -21 -4
-23 -1 -2 -8 2 -16 9 -8 7 -15 9 -15 5 0 -4 -6 -2 -14 4 -18 15 -30 -11 -13
-29 9 -10 7 -11 -10 -6 -18 6 -22 3 -20 -14 1 -11 5 -20 10 -20 4 0 5 -5 1
-12 -4 -7 -3 -8 4 -4 9 5 9 13 2 26 -9 16 -8 18 5 14 9 -4 13 -9 11 -12 -3 -3
0 -12 7 -20 8 -10 8 -13 1 -9 -7 4 -15 0 -18 -9 -3 -8 -2 -12 4 -9 6 3 10 -5
10 -19 0 -14 3 -25 8 -25 4 1 14 1 22 0 12 -1 12 -3 2 -9 -9 -7 -7 -15 11 -34
13 -13 21 -31 19 -38 -3 -7 0 -10 6 -7 5 4 15 -7 22 -23 7 -17 16 -30 21 -30
5 0 9 -6 9 -14 0 -8 5 -18 12 -22 7 -5 8 -2 3 7 -5 8 -4 11 1 6 5 -5 9 -16 9
-25 0 -11 7 -16 20 -14 16 3 17 1 8 -9 -10 -10 -9 -15 5 -26 12 -10 12 -12 2
-8 -10 4 -9 2 3 -8 9 -8 17 -20 17 -26 0 -7 5 -9 11 -5 8 4 9 -1 4 -17 -7 -22
-6 -23 9 -10 9 8 16 10 15 5 -5 -26 2 -46 15 -41 10 4 12 0 9 -14 -3 -11 0
-19 6 -19 7 0 9 5 5 12 -4 7 -3 8 4 4 6 -4 9 -13 6 -20 -3 -7 2 -16 11 -20 9
-3 13 -11 9 -17 -4 -8 -3 -9 4 -5 7 4 12 3 12 -2 0 -5 10 -14 22 -21 19 -9 19
-11 3 -6 -15 4 -13 -1 10 -21 17 -14 23 -23 15 -19 -8 3 -6 -1 4 -9 11 -9 16
-16 10 -16 -5 -1 2 -7 16 -15 14 -8 19 -14 12 -15 -8 0 -6 -8 8 -22 11 -13 32
-36 46 -53 14 -16 22 -24 18 -16 -5 10 -3 12 5 7 9 -6 9 -11 1 -21 -8 -9 -6
-14 5 -19 9 -3 14 -10 11 -15 -8 -13 21 -34 35 -25 8 5 9 3 3 -7 -11 -18 -14
-39 -6 -36 4 1 9 -2 10 -8 12 -34 23 -41 56 -39 20 2 36 -1 36 -7 0 -6 -4 -7
-10 -4 -5 3 -10 0 -10 -7 0 -10 -2 -10 -9 1 -7 10 -12 11 -27 1 -18 -11 -18
-11 0 -6 14 5 17 2 12 -9 -4 -10 -2 -14 5 -9 8 4 9 -1 4 -17 -7 -21 -6 -22 8
-10 9 7 14 18 10 24 -3 6 -1 7 5 3 7 -4 12 -2 12 5 0 7 3 9 6 6 4 -4 1 -14 -7
-23 -16 -20 -21 -44 -8 -44 6 0 7 -4 4 -10 -3 -5 0 -7 8 -4 8 3 18 0 23 -7 4
-7 3 -10 -3 -6 -20 13 -8 -28 14 -49 13 -11 20 -24 16 -27 -3 -4 6 -11 21 -17
14 -5 26 -13 25 -17 -5 -29 4 -34 17 -10 12 23 18 26 30 16 8 -6 14 -16 14
-22 0 -6 -7 -2 -16 9 -14 17 -15 17 -10 1 3 -10 2 -16 -3 -13 -5 3 -11 -3 -14
-14 -3 -11 0 -23 5 -27 6 -3 8 -1 5 4 -4 6 0 13 8 16 11 5 12 1 5 -19 -6 -16
-6 -23 0 -19 11 7 32 -29 23 -39 -3 -3 1 -6 11 -6 9 0 14 -4 11 -10 -3 -5 -1
-10 5 -10 6 0 8 -5 4 -11 -4 -8 0 -8 15 0 12 7 26 9 31 6 6 -3 10 1 10 9 0 19
16 21 26 4 4 -6 3 -8 -3 -5 -6 4 -14 0 -17 -9 -3 -8 -11 -12 -16 -9 -6 4 -18
1 -26 -6 -12 -10 -12 -14 -2 -20 7 -5 18 -9 23 -9 6 0 3 5 -5 10 -8 5 -10 10
-5 10 6 0 17 -5 25 -10 12 -7 10 -11 -9 -18 -21 -7 -22 -10 -7 -15 10 -4 14
-12 10 -18 -4 -8 -3 -9 4 -5 7 4 12 1 12 -6 0 -7 12 -21 28 -30 15 -10 22 -18
15 -18 -6 0 -15 5 -18 10 -3 6 -11 10 -17 10 -6 0 -1 -8 10 -19 12 -10 22 -28
22 -39 0 -12 9 -26 20 -32 11 -6 20 -17 20 -25 0 -8 7 -15 16 -15 8 0 12 -5 8
-11 -5 -8 -1 -8 14 0 11 6 30 11 41 11 12 0 21 4 21 9 0 4 10 8 23 7 12 0 21
4 20 10 -1 6 4 11 12 11 8 0 12 -4 10 -7 -6 -9 48 -5 63 4 6 4 8 14 5 24 -6
16 -6 16 11 -1 20 -19 31 -23 20 -6 -3 6 0 15 7 20 11 7 11 9 1 9 -7 0 -10 5
-7 10 4 6 11 8 16 5 5 -3 6 1 3 9 -3 9 -11 13 -17 9 -6 -4 -7 -1 -2 8 14 21
14 130 1 123 -6 -3 -3 1 6 9 10 8 15 17 11 20 -3 4 2 16 12 27 10 11 14 20 9
20 -5 0 -2 5 6 11 13 9 12 10 -2 5 -10 -3 -20 0 -24 6 -4 6 -3 8 4 4 6 -3 13
-2 17 4 3 5 2 10 -2 10 -5 0 -8 19 -7 43 1 23 -4 45 -10 49 -7 5 -5 8 5 8 12
0 15 8 13 27 -1 15 2 36 8 46 7 15 7 22 -3 28 -9 6 -10 9 -2 9 7 0 10 10 7 26
-3 19 -1 24 8 18 10 -5 10 -4 1 6 -10 11 -9 16 5 27 11 9 12 12 3 11 -7 -2
-16 3 -18 10 -3 7 3 12 14 12 15 0 15 2 4 9 -13 8 -13 12 0 27 9 11 9 15 2 10
-7 -4 -13 -3 -13 3 0 5 5 13 10 16 8 5 7 11 -1 21 -8 10 -8 14 0 14 6 0 11 5
11 11 0 5 -4 8 -8 5 -15 -9 -8 58 7 70 11 9 12 12 1 19 -9 6 -11 4 -5 -6 5 -8
4 -11 -1 -6 -13 12 -13 69 0 64 14 -6 14 61 0 71 -5 4 -9 13 -8 20 1 6 2 17 3
23 0 5 5 7 11 4 6 -4 7 1 3 11 -5 12 -3 15 6 9 10 -6 11 -3 2 12 -6 11 -7 24
-3 28 4 5 0 5 -8 1 -8 -4 -6 0 5 10 15 13 16 15 3 11 -24 -8 -31 21 -8 33 21
11 27 30 9 30 -5 0 -7 -5 -3 -12 4 -6 3 -8 -2 -5 -14 8 -10 53 6 72 7 8 10 18
7 22 -4 3 -2 12 4 19 7 9 6 22 -6 44 -16 30 -16 32 5 37 19 5 20 6 3 19 -10 8
-13 13 -8 12 6 -2 11 2 12 7 1 6 -5 9 -14 7 -8 -2 -12 1 -8 7 3 6 13 11 21 11
8 0 12 5 9 10 -4 6 -12 7 -18 4 -8 -5 -8 -3 1 7 6 7 12 20 12 29 0 13 -1 13
-10 0 -6 -9 -10 -10 -10 -3 0 20 18 24 29 6 9 -16 10 -16 8 4 0 12 -5 19 -9
17 -4 -3 -8 0 -8 6 0 6 -4 8 -10 5 -5 -3 -10 -1 -10 5 0 6 8 10 18 8 10 -2 16
2 14 11 -1 7 3 20 10 29 7 9 9 13 3 10 -5 -3 -19 4 -30 15 l-20 20 23 -12 c12
-6 22 -10 23 -9 6 24 5 38 -3 38 -6 0 -8 -7 -4 -15 8 -22 -2 -18 -15 6 -8 15
-8 19 0 15 6 -4 11 0 11 9 0 12 -5 15 -17 11 -17 -6 -17 -5 -1 7 10 8 15 17
11 20 -3 4 -1 7 6 7 6 0 11 -6 10 -12 -1 -7 -1 -20 0 -28 3 -29 18 9 16 40 -1
17 3 30 9 30 6 0 5 4 -3 9 -8 6 -12 19 -9 35 3 15 1 29 -5 33 -6 3 -7 1 -3 -5
4 -6 -4 -16 -16 -22 -22 -11 -22 -10 -4 4 11 9 16 16 12 16 -5 0 -3 6 3 14 9
10 9 16 1 21 -8 5 -7 11 2 23 10 12 10 16 1 19 -7 3 -13 9 -13 14 0 5 10 3 23
-6 13 -8 26 -13 28 -10 9 9 4 -60 -5 -75 -9 -13 -8 -13 7 -1 12 9 17 10 17 2
0 -7 4 -10 9 -6 5 3 13 1 16 -5 4 -6 3 -10 -2 -9 -20 3 -34 -2 -28 -11 4 -6
10 -8 14 -6 4 3 7 -8 6 -24 -1 -17 2 -30 7 -30 4 0 7 -6 5 -12 -1 -7 3 -12 9
-11 6 1 11 -4 11 -12 0 -8 -4 -12 -8 -9 -9 5 -3 -34 11 -71 5 -14 7 -25 4 -25
-2 0 0 -9 6 -21 7 -11 18 -18 25 -15 8 3 17 1 19 -3 3 -5 -6 -8 -21 -7 -16 1
-28 -5 -30 -14 -4 -13 -3 -13 6 0 7 10 11 11 11 3 0 -7 6 -11 13 -9 6 1 9 1 4
-2 -4 -2 -12 -13 -18 -24 -7 -14 -8 -18 0 -14 25 16 32 -48 7 -67 -6 -5 -3 -6
9 -3 11 3 27 1 35 -4 10 -6 11 -10 3 -10 -7 0 -13 -5 -13 -11 0 -5 4 -8 9 -5
11 7 8 -21 -4 -31 -4 -4 -5 -2 0 6 5 9 4 12 -3 7 -6 -4 -9 3 -8 18 2 17 -1 23
-11 19 -9 -4 -10 -9 -3 -17 6 -9 6 -16 -3 -25 -9 -10 -9 -12 2 -9 8 2 17 -5
19 -16 3 -13 0 -16 -10 -10 -7 4 -5 -1 4 -12 14 -16 15 -23 5 -33 -9 -10 -8
-11 8 -5 17 7 18 5 8 -8 -13 -14 -8 -28 9 -28 4 0 6 14 3 30 -3 18 -1 30 5 30
6 0 8 -4 5 -10 -3 -5 1 -10 9 -10 8 0 17 -4 20 -9 4 -5 -4 -7 -16 -3 -22 5
-22 5 -5 -21 10 -15 14 -27 10 -27 -5 0 -2 -4 5 -9 11 -7 10 -9 -3 -14 -10 -5
-14 -3 -9 5 4 6 3 8 -4 4 -6 -3 -13 -2 -17 4 -3 5 1 10 10 10 9 0 13 5 10 10
-5 8 -11 7 -21 -1 -11 -9 -11 -15 -3 -25 6 -7 7 -19 3 -25 -4 -8 -3 -9 4 -5 7
4 12 1 12 -8 0 -9 -5 -16 -12 -16 -6 0 -8 -3 -5 -6 4 -4 13 -1 22 6 11 9 15 9
15 1 0 -7 5 -9 13 -5 9 6 9 5 0 -8 -7 -8 -10 -18 -6 -21 3 -4 -2 -9 -11 -13
-12 -5 -14 -10 -5 -20 6 -7 7 -19 3 -25 -5 -8 -3 -9 6 -4 9 6 10 2 5 -15 -6
-18 -4 -22 8 -17 19 7 37 -11 30 -31 -4 -9 -2 -13 4 -9 18 12 8 -25 -11 -38
-10 -8 -13 -16 -7 -19 5 -4 10 -14 10 -24 1 -36 6 -62 14 -62 4 0 12 0 18 0 5
0 7 5 3 11 -4 8 -9 7 -15 -2 -6 -10 -8 -5 -5 14 3 16 0 27 -6 27 -6 0 -9 3 -5
6 3 3 14 1 24 -5 10 -6 12 -11 6 -11 -9 0 -7 -6 4 -20 17 -19 32 -82 16 -66
-4 4 -8 12 -8 17 0 5 -3 9 -7 9 -5 0 -12 0 -18 0 -5 0 -10 -5 -10 -10 0 -6 3
-9 8 -9 19 3 26 -2 13 -10 -10 -6 -5 -9 15 -10 54 -1 61 -4 57 -21 -3 -10 2
-20 10 -23 7 -3 14 1 14 9 0 7 -4 11 -9 8 -4 -3 -5 2 -1 11 4 12 8 13 13 5 5
-8 9 -7 13 4 4 9 14 13 26 11 11 -2 23 1 26 6 4 5 10 7 15 4 5 -3 12 -1 15 5
5 8 12 7 23 -2 13 -11 15 -11 10 3 -4 11 0 15 13 14 10 -1 22 -4 25 -8 12 -12
24 -8 24 9 0 8 4 13 9 10 5 -3 15 2 22 11 10 12 10 14 2 9 -8 -4 -13 -2 -13 6
0 7 -9 0 -20 -17 -11 -16 -20 -25 -20 -20 1 6 7 19 15 29 8 10 12 23 9 27 -3
5 0 9 5 9 6 0 11 -4 11 -10 0 -5 7 -10 16 -10 10 0 12 4 7 13 -4 6 -6 21 -4
31 2 14 -1 17 -14 12 -16 -6 -16 -4 -2 17 10 15 12 29 6 38 -7 12 -9 12 -10
-1 -1 -8 -1 -18 -1 -21 1 -3 -5 -6 -12 -6 -10 0 -10 6 1 29 8 15 19 28 24 28
6 0 3 8 -7 18 -10 9 -20 16 -23 15 -3 -1 -12 3 -18 9 -14 12 -7 32 8 22 5 -3
6 -10 3 -16 -4 -7 -2 -8 4 -4 9 5 9 13 2 26 -15 27 -12 34 6 19 12 -9 10 -3
-5 21 -26 43 -26 51 -3 44 14 -5 15 -4 2 5 -8 6 -11 11 -6 11 5 0 1 9 -8 19
-12 13 -14 21 -6 26 8 5 6 13 -7 28 -17 20 -17 20 2 14 20 -7 20 -7 1 8 -13
10 -15 15 -6 15 7 0 11 2 8 5 -3 3 -13 2 -22 -1 -14 -5 -15 -9 -4 -15 10 -7
10 -9 -2 -9 -13 0 -13 -1 0 -10 12 -7 10 -9 -8 -7 -22 1 -32 17 -11 17 5 0 8
4 4 9 -3 5 -1 13 5 16 7 5 4 18 -9 41 -11 19 -16 34 -10 34 6 0 6 7 -1 20 -6
11 -16 17 -22 14 -7 -5 -8 -2 -3 6 4 7 2 16 -6 21 -10 6 -6 8 11 6 14 -2 25
-10 25 -18 0 -8 4 -20 8 -26 5 -7 5 -17 2 -23 -3 -5 -1 -18 4 -27 6 -11 11
-13 11 -5 0 7 5 10 12 6 7 -4 8 -3 4 5 -4 6 -12 9 -17 6 -5 -4 -9 -1 -9 4 0 6
7 11 15 11 8 0 15 5 15 10 0 6 -3 9 -7 9 -21 -3 -24 3 -12 18 10 11 10 14 2 9
-7 -4 -13 -3 -13 3 0 5 5 11 10 13 6 2 3 12 -7 24 -24 26 -27 43 -11 62 11 13
11 14 -1 8 -9 -6 -12 -5 -9 5 3 8 -1 27 -9 43 -12 23 -12 30 -2 36 7 5 3 7
-13 7 -13 -1 -25 -7 -25 -14 0 -7 5 -9 10 -6 6 4 7 1 2 -7 -5 -8 -4 -11 2 -7
6 4 13 1 16 -7 4 -10 0 -12 -15 -8 -15 3 -19 1 -14 -7 4 -6 11 -9 15 -7 4 3
13 1 20 -3 9 -6 10 -11 2 -15 -6 -4 -11 -2 -11 4 0 6 -5 8 -11 4 -8 -4 -3 -12
12 -20 13 -7 19 -13 12 -14 -6 0 -10 -9 -8 -20 3 -14 0 -18 -8 -14 -7 4 -8 3
-4 -2 5 -5 12 -9 15 -9 13 0 32 -16 32 -26 0 -6 -10 -3 -21 5 -12 8 -27 12
-34 10 -7 -3 -16 -1 -20 5 -4 7 1 8 12 4 10 -3 15 -3 11 2 -4 4 -3 14 3 21 6
7 6 14 1 18 -6 3 -12 -1 -16 -9 -3 -8 -11 -15 -18 -15 -9 0 -9 3 2 10 13 9 13
11 0 21 -13 9 -12 10 3 5 13 -4 17 -1 15 12 -3 20 -20 41 -29 36 -3 -2 -6 3
-6 11 0 11 4 12 14 4 8 -7 13 -8 13 -1 0 16 -28 34 -42 27 -7 -4 -6 -1 3 7 15
12 15 43 0 34 -10 -6 -7 46 3 63 7 11 5 13 -10 7 -10 -4 -15 -4 -11 0 4 4 -1
13 -11 21 -16 12 -16 13 1 7 22 -8 20 15 -3 33 -11 9 -12 12 -2 13 7 0 10 5 7
10 -4 6 -12 7 -18 3 -7 -4 -6 0 2 10 13 16 8 22 -14 17 -5 -1 -7 2 -3 6 4 4 3
13 -3 21 -9 9 -8 13 0 13 6 0 11 -5 11 -11 0 -5 5 -7 10 -4 6 4 9 1 8 -6 -2
-6 3 -14 11 -17 8 -2 11 0 8 6 -4 5 1 16 10 23 10 8 14 9 10 2 -4 -6 -3 -14 2
-18 5 -3 14 3 20 12 6 11 11 13 11 5 0 -7 5 -10 10 -7 6 4 8 10 5 15 -3 5 0
12 6 16 7 4 9 3 5 -4 -3 -6 2 -16 11 -22 17 -11 17 -11 0 -6 -11 3 -20 0 -24
-10 -3 -8 -12 -13 -20 -10 -7 3 -16 -1 -20 -10 -4 -11 -8 -12 -13 -4 -5 8 -9
7 -13 -5 -5 -11 -3 -14 6 -9 7 5 5 0 -3 -11 -12 -15 -12 -17 -1 -10 10 6 12 4
6 -5 -5 -8 -4 -11 3 -6 11 7 11 -12 -1 -31 -5 -7 -4 -13 2 -13 5 0 11 3 14 8
2 4 2 2 1 -5 -2 -7 1 -15 7 -18 5 -4 7 -10 4 -15 -3 -5 -1 -11 4 -15 6 -3 8
-12 4 -20 -3 -8 0 -15 6 -15 10 0 16 22 12 44 -1 5 6 6 16 2 12 -4 9 1 -8 16
-14 13 -32 31 -39 41 -12 17 -11 18 11 14 13 -2 18 -2 10 0 -12 4 -12 6 0 14
12 7 11 9 -1 9 -9 0 -16 8 -17 18 -1 15 5 18 27 17 16 -1 27 2 25 6 -6 9 22 6
31 -4 4 -4 13 -2 21 4 7 6 13 9 13 5 0 -4 11 1 25 10 14 9 23 20 20 24 -2 4 7
5 20 2 15 -2 25 0 25 7 0 7 -4 9 -10 6 -6 -3 -7 1 -3 10 3 10 8 12 12 6 4 -5
15 -9 25 -7 22 3 48 35 40 48 -3 5 0 7 8 6 7 -2 12 2 11 8 -1 6 4 11 12 11 8
0 12 -4 9 -8 -2 -4 0 -10 6 -14 5 -3 10 -1 10 4 0 6 5 10 11 8 6 -1 12 8 14
20 1 13 5 26 9 30 4 5 6 1 5 -7 -2 -8 1 -16 6 -17 13 -4 14 19 1 36 -8 11 -8
13 1 8 6 -4 13 -4 16 0 2 5 3 3 1 -3 -1 -6 2 -17 7 -25 7 -11 9 -11 9 4 0 9 7
17 15 17 8 0 15 5 15 11 0 5 5 7 12 3 7 -4 8 -3 4 5 -6 9 -11 9 -22 0 -8 -6
-17 -9 -21 -5 -3 3 0 6 8 7 9 0 6 4 -6 10 -19 9 -18 9 3 5 12 -2 22 0 22 6 0
5 7 2 16 -6 19 -19 31 -21 15 -3 -8 11 -5 17 14 27 13 7 22 18 18 23 -4 6 -1
7 7 2 10 -6 7 -12 -10 -25 -17 -13 -20 -19 -10 -25 8 -5 11 -4 7 2 -4 5 5 16
18 23 14 7 21 18 17 24 -16 26 -10 34 16 20 26 -13 47 -10 37 6 -3 5 -13 6
-22 3 -11 -5 -14 -3 -9 6 5 7 16 11 27 8 10 -3 25 4 36 16 10 11 13 17 6 14
-6 -4 -14 -4 -17 1 -2 4 5 9 16 9 28 2 43 19 27 28 -8 5 -10 4 -5 -3 5 -8 2
-10 -9 -6 -20 8 -15 13 16 19 27 5 51 33 42 48 -4 6 0 8 11 4 14 -5 17 -3 13
8 -4 8 -1 17 5 21 6 4 8 3 4 -4 -3 -6 -2 -13 3 -16 5 -4 8 5 7 18 -2 16 2 23
13 22 9 -1 17 8 19 22 2 14 8 20 15 15 7 -4 6 1 -2 10 -12 15 -12 17 4 11 13
-5 16 -4 11 4 -4 7 -2 12 3 12 6 0 11 9 11 21 0 11 10 30 23 41 12 11 16 17
10 13 -7 -3 -13 -1 -13 4 0 15 37 51 52 51 6 0 3 7 -8 16 -10 8 -13 13 -6 9 9
-5 11 1 8 19 -3 15 -1 24 5 21 5 -4 7 -10 4 -15 -3 -5 0 -12 7 -16 7 -4 10 -4
6 1 -4 4 -2 15 5 23 8 10 8 13 1 9 -7 -4 -15 0 -18 9 -3 8 -2 12 4 9 6 -3 10
-4 10 -1 0 2 3 11 6 20 3 9 1 16 -6 16 -6 0 -9 -4 -6 -8 3 -5 -1 -9 -9 -9 -11
0 -12 4 -4 13 6 7 8 18 4 25 -5 7 0 7 16 -2 22 -11 23 -11 10 4 -7 10 -10 17
-5 17 4 0 3 5 -4 12 -7 7 -12 22 -12 35 0 13 -4 23 -10 23 -5 0 -10 5 -10 10
0 12 -35 53 -110 131 -49 50 -60 57 -106 62 -31 3 -83 22 -132 47 -57 29 -88
40 -104 35 -18 -5 -20 -4 -8 4 8 6 13 11 10 12 -3 0 -13 2 -23 4 -9 2 -15 -1
-12 -5 3 -5 0 -12 -6 -16 -8 -4 -9 -3 -5 4 4 7 2 12 -4 12 -6 0 -9 4 -6 8 3 4
-10 7 -27 6 -73 -6 -93 -6 -107 0 -9 4 -20 -1 -28 -11z m-166 -25 c5 -7 3 -8
-6 -3 -10 6 -12 4 -6 -11 5 -14 4 -16 -5 -7 -6 6 -8 16 -5 22 9 14 13 14 22
-1z m-201 -98 c-3 -5 -12 -10 -18 -10 -7 0 -6 4 3 10 19 12 23 12 15 0z m-111
-73 c-13 -35 -23 -13 -15 33 1 2 6 -1 11 -6 6 -6 8 -18 4 -27z m-34 -31 c0 -4
-9 -1 -19 6 -11 7 -17 16 -15 20 5 8 34 -15 34 -26z m-40 -90 c0 -3 -4 -8 -10
-11 -5 -3 -10 -1 -10 4 0 6 5 11 10 11 6 0 10 -2 10 -4z m504 -44 c3 -5 -1 -9
-9 -9 -8 0 -15 4 -15 9 0 4 4 8 9 8 6 0 12 -4 15 -8z m81 -2 c-3 -5 1 -10 10
-10 9 0 14 4 11 8 -2 4 5 9 17 9 17 2 19 0 7 -7 -9 -6 -10 -10 -3 -10 6 0 15
5 19 11 4 8 9 7 15 -2 5 -8 9 -9 9 -3 0 6 11 12 25 12 14 0 25 -6 25 -12 0 -6
5 -4 10 4 6 9 13 11 18 5 11 -16 45 -19 37 -3 -3 7 1 4 9 -6 16 -20 16 -20 17
0 0 17 1 16 9 -3 5 -13 14 -23 20 -23 6 0 9 4 6 8 -3 5 1 9 9 9 8 0 12 -4 9
-9 -3 -4 2 -8 10 -8 9 0 16 -5 16 -12 0 -6 3 -8 6 -5 4 4 2 13 -4 20 -9 10 -8
14 3 14 8 0 12 -4 9 -9 -3 -4 0 -8 5 -8 6 0 10 -6 9 -12 -2 -8 5 -12 17 -11
11 1 14 0 7 -3 -6 -3 -10 -9 -7 -14 3 -4 -9 -22 -25 -40 -32 -34 -37 -45 -17
-35 6 4 3 -1 -7 -9 -11 -9 -16 -16 -11 -16 5 0 -4 -13 -19 -29 -16 -16 -25
-34 -21 -41 4 -7 0 -10 -11 -8 -15 2 -18 -3 -17 -22 1 -14 0 -20 -3 -13 -6 13
-34 6 -34 -9 0 -5 5 -6 12 -2 7 4 8 3 4 -4 -4 -7 -14 -12 -22 -12 -8 0 -13 -4
-10 -8 2 -4 -9 -14 -25 -21 -16 -7 -27 -16 -24 -21 4 -7 -30 -23 -46 -22 -3 1
-6 -6 -6 -14 0 -11 4 -11 19 3 10 9 21 13 25 10 3 -4 1 -7 -6 -7 -7 0 -9 -5
-5 -12 4 -6 3 -8 -4 -4 -6 3 -14 2 -17 -4 -5 -8 -12 -7 -23 2 -11 9 -13 9 -9
1 5 -7 -1 -16 -13 -23 -11 -6 -20 -8 -20 -4 0 3 -7 1 -15 -6 -9 -7 -14 -19
-11 -25 3 -9 -2 -11 -16 -7 -11 3 -24 -1 -29 -9 -7 -11 -9 -11 -9 -1 0 7 -5
10 -11 6 -8 -4 -3 -12 12 -20 17 -9 19 -13 8 -14 -9 0 -19 -7 -23 -15 -3 -8
-10 -15 -16 -15 -6 0 -4 7 4 16 20 20 20 24 -1 24 -9 0 -14 -3 -10 -6 3 -4 -1
-13 -9 -21 -8 -8 -11 -19 -8 -25 4 -6 -2 -5 -15 1 -17 9 -21 9 -19 -1 2 -7
-12 -20 -31 -30 -19 -9 -39 -22 -45 -29 -8 -9 -7 -10 4 -4 13 8 13 7 1 -8 -16
-20 -35 -23 -26 -4 4 6 -2 1 -13 -12 l-20 -24 3 26 c2 15 0 26 -3 26 -18 -3
-32 2 -32 11 0 6 8 10 18 10 16 1 16 1 -1 11 -13 8 -22 7 -34 -3 -14 -11 -16
-11 -11 4 7 17 -7 19 -32 3 -13 -7 -13 -6 -2 7 9 12 10 18 2 23 -8 5 -8 11 1
21 9 11 8 14 -7 15 -14 0 -15 2 -4 6 8 3 21 13 29 22 13 15 13 15 8 0 -3 -9 0
-22 6 -28 6 -6 7 -11 2 -11 -6 0 -3 -5 5 -11 13 -10 13 -10 -1 -6 -9 3 -16 0
-16 -7 0 -6 8 -12 18 -12 13 0 16 7 12 25 -2 14 -9 28 -14 32 -6 4 -3 13 8 24
15 16 15 18 2 13 -12 -5 -16 0 -16 18 0 13 4 24 10 24 6 0 8 3 5 6 -4 3 -16 1
-27 -6 -15 -7 -27 -8 -39 -1 -9 6 -11 11 -4 11 20 0 14 26 -10 44 l-23 17 23
-11 c18 -9 22 -8 22 5 0 9 5 13 10 10 6 -3 10 -1 10 4 0 6 -5 11 -11 11 -8 0
-7 5 1 15 11 13 10 14 -4 9 -10 -4 -15 -13 -12 -20 3 -7 1 -16 -4 -19 -6 -4
-10 6 -10 20 0 18 -4 24 -12 19 -10 -6 -10 -4 -2 7 5 8 10 25 9 39 -1 14 4 37
11 51 7 15 10 29 7 33 -9 9 27 76 40 76 6 0 2 -9 -8 -20 -10 -11 -15 -20 -10
-20 4 0 16 10 27 23 11 12 28 23 39 23 22 1 23 0 8 -29 -10 -21 -10 -21 5 -3
9 11 16 24 16 29 0 4 5 5 10 2 7 -4 6 -13 -1 -26 -6 -12 -8 -23 -5 -27 3 -3 6
0 6 8 0 10 3 10 18 -1 14 -11 15 -11 5 1 -17 18 -17 35 0 22 9 -8 17 -8 27 0
12 8 12 9 -2 4 -10 -3 -20 -1 -23 4 -4 6 -3 11 2 11 36 6 51 9 68 13 11 2 22
5 25 6 3 1 9 2 13 1 5 -1 5 4 1 10 -5 9 -2 10 9 6 9 -3 19 -2 23 4 3 6 12 8
20 5 7 -3 11 0 8 7 -2 7 3 21 11 32 16 19 16 19 5 -2 -6 -13 -7 -23 -1 -23 5
0 12 8 15 17 6 14 9 15 15 4 6 -9 10 -7 14 8 3 12 8 21 12 21 3 0 3 -4 0 -10z
m-204 -24 c19 17 39 11 39 -12 0 -17 12 -18 28 -2 18 18 14 1 -5 -21 -9 -11
-20 -18 -25 -15 -5 3 -15 1 -23 -6 -11 -9 -13 -6 -10 20 4 28 2 30 -11 19 -8
-7 -13 -18 -10 -26 3 -8 2 -12 -3 -9 -5 3 -12 -2 -16 -12 -6 -16 -7 -16 -21 2
-10 15 -14 16 -15 5 0 -10 -2 -11 -6 -1 -2 7 6 21 19 32 12 11 17 19 11 20 -7
0 -13 5 -13 11 0 6 10 3 22 -5 20 -14 24 -14 39 0z m113 -5 c3 -5 -2 -15 -12
-22 -15 -13 -16 -12 -4 3 10 13 10 17 0 21 -9 4 -9 6 -1 6 6 1 14 -3 17 -8z
m-210 -47 c3 -8 2 -12 -4 -9 -6 3 -10 10 -10 16 0 14 7 11 14 -7z m-29 -4 c-3
-5 -12 -10 -18 -10 -7 0 -6 4 3 10 19 12 23 12 15 0z m-435 -86 c0 -2 -7 -4
-15 -4 -8 0 -15 4 -15 10 0 5 7 7 15 4 8 -4 15 -8 15 -10z m1111 -21 c12 -16
12 -17 -2 -6 -9 7 -20 9 -24 5 -5 -4 -5 -1 -1 6 9 16 11 15 27 -5z m-114 -128
c0 -8 -4 -12 -9 -9 -5 3 -6 10 -3 15 9 13 12 11 12 -6z m-642 -73 c-3 -3 -11
0 -18 7 -9 10 -8 11 6 5 10 -3 15 -9 12 -12z m64 -51 c3 -1 -4 -8 -15 -17 -10
-8 -13 -13 -7 -9 8 4 11 1 7 -8 -2 -7 -11 -14 -19 -14 -10 0 -11 5 -4 18 7 13
5 20 -8 28 -17 9 -4 10 46 2z m365 -22 c-3 -5 -10 -7 -15 -3 -5 3 -7 10 -3 15
3 5 10 7 15 3 5 -3 7 -10 3 -15z m-39 -37 c-3 -3 -11 0 -18 7 -9 10 -8 11 6 5
10 -3 15 -9 12 -12z m389 -44 c-3 -4 -11 -5 -19 -1 -21 7 -19 12 4 10 11 0 18
-5 15 -9z m-699 -48 c9 8 12 3 9 -16 -2 -18 1 -24 11 -20 21 7 25 -6 10 -27
-13 -18 -14 -17 -20 2 -3 12 -11 18 -17 15 -6 -4 -5 -9 3 -15 7 -4 10 -12 5
-16 -5 -4 -11 -2 -13 5 -3 6 -10 9 -16 5 -9 -5 -9 -3 0 8 9 11 8 18 -3 33 -15
21 -8 44 9 27 7 -7 15 -7 22 -1z m-358 -94 c-1 -6 5 -9 13 -8 8 2 11 0 7 -4
-4 -4 -15 -9 -23 -10 -9 -1 -13 0 -10 3 3 4 1 11 -4 18 -7 8 -5 12 5 12 7 0
13 -5 12 -11z m800 -1 c0 -8 -4 -12 -9 -9 -5 3 -6 10 -3 15 9 13 12 11 12 -6z
m-3 -41 c3 -8 2 -12 -4 -9 -6 3 -10 10 -10 16 0 14 7 11 14 -7z m-97 -19 c0
-8 -4 -12 -9 -9 -5 3 -6 10 -3 15 9 13 12 11 12 -6z m-660 -20 c0 -8 -4 -12
-9 -9 -5 3 -6 10 -3 15 9 13 12 11 12 -6z m598 -14 c-9 -8 -36 -10 -30 -2 2 4
11 8 20 8 8 0 13 -3 10 -6z m70 0 c3 -5 0 -13 -6 -17 -7 -4 -9 -3 -5 4 3 5 0
13 -6 15 -9 4 -10 6 -1 6 6 1 14 -3 18 -8z m-300 -49 c-3 -3 -11 0 -18 7 -9
10 -8 11 6 5 10 -3 15 -9 12 -12z m-411 -10 c3 -5 -1 -9 -9 -9 -8 0 -12 4 -9
9 3 4 7 8 9 8 2 0 6 -4 9 -8z m586 -2 c0 -5 -5 -10 -11 -10 -5 0 -7 5 -4 10 3
6 8 10 11 10 2 0 4 -4 4 -10z m-825 -18 c-3 -3 -11 0 -18 7 -9 10 -8 11 6 5
10 -3 15 -9 12 -12z m363 -7 c-3 -3 -9 2 -12 12 -6 14 -5 15 5 6 7 -7 10 -15
7 -18z m329 -40 c0 -8 -4 -12 -9 -9 -5 3 -6 10 -3 15 9 13 12 11 12 -6z m-430
-48 c0 -12 -1 -16 -4 -9 -3 6 -9 10 -14 7 -5 -4 -6 1 -3 9 6 15 -6 21 -29 17
-5 -1 -6 3 -2 8 10 17 51 -8 52 -32z m163 -7 c0 -5 -5 -10 -11 -10 -5 0 -7 5
-4 10 3 6 8 10 11 10 2 0 4 -4 4 -10z m296 -46 c1 -9 -1 -13 -4 -9 -4 4 -7 10
-7 13 0 4 -4 14 -9 22 -7 12 -6 13 4 3 8 -7 15 -20 16 -29z m-1609 -41 c-5
-12 -15 -19 -20 -16 -8 5 -7 8 1 11 17 5 15 19 -3 19 -13 0 -18 -9 -17 -27 0
-3 -11 -6 -24 -6 -15 -1 -23 3 -21 10 2 6 12 10 22 8 12 -2 16 1 12 10 -3 10
4 14 28 14 30 0 32 -2 22 -23z m907 9 c3 -5 -1 -9 -9 -9 -8 0 -12 4 -9 9 3 4
7 8 9 8 2 0 6 -4 9 -8z m-869 -42 c-3 -5 -12 -10 -18 -10 -7 0 -6 4 3 10 19
12 23 12 15 0z m39 -30 c-6 -5 -24 21 -24 34 0 6 6 1 14 -10 8 -10 12 -21 10
-24z m778 17 c-7 -8 -10 -17 -7 -21 3 -3 0 -2 -6 3 -8 7 -8 13 2 24 17 18 26
13 11 -6z m42 15 c3 -5 -1 -9 -9 -9 -8 0 -15 4 -15 9 0 4 4 8 9 8 6 0 12 -4
15 -8z m231 -22 c-3 -5 -12 -10 -18 -10 -7 0 -6 4 3 10 19 12 23 12 15 0z
m160 -18 c-3 -3 -11 0 -18 7 -9 10 -8 11 6 5 10 -3 15 -9 12 -12z m-435 -42
c0 -5 -2 -10 -4 -10 -3 0 -8 5 -11 10 -3 6 -1 10 4 10 6 0 11 -4 11 -10z m55
0 c3 -5 1 -10 -4 -10 -6 0 -11 5 -11 10 0 6 2 10 4 10 3 0 8 -4 11 -10z m455
-16 c0 -8 -19 -13 -24 -6 -3 5 1 9 9 9 8 0 15 -2 15 -3z m-527 -41 c-6 -16 -5
-17 12 -3 17 14 17 14 4 -7 -11 -19 -15 -20 -22 -8 -4 8 -5 20 -2 25 10 16 15
11 8 -7z m491 -27 c2 -14 0 -23 -4 -21 -4 3 -7 16 -7 30 0 32 8 26 11 -9z
m-1494 -16 c0 -5 -2 -10 -4 -10 -3 0 -8 5 -11 10 -3 6 -1 10 4 10 6 0 11 -4
11 -10z m1260 -20 c0 -5 -5 -10 -11 -10 -5 0 -7 5 -4 10 3 6 8 10 11 10 2 0 4
-4 4 -10z m252 -78 c4 -13 -1 -18 -16 -19 -12 -1 -15 1 -8 4 6 3 12 11 12 19
0 20 7 18 12 -4z m-232 -2 c0 -5 -5 -10 -11 -10 -5 0 -7 5 -4 10 3 6 8 10 11
10 2 0 4 -4 4 -10z m535 0 c3 -5 2 -10 -4 -10 -5 0 -13 5 -16 10 -3 6 -2 10 4
10 5 0 13 -4 16 -10z m-775 -41 c0 -5 -4 -9 -8 -9 -5 0 -9 7 -9 15 0 8 4 12 9
9 4 -3 8 -9 8 -15z m225 12 c3 -5 2 -12 -3 -15 -5 -3 -9 1 -9 9 0 17 3 19 12
6z m559 -15 c-3 -9 -10 -16 -15 -16 -5 0 -4 9 3 20 14 22 21 20 12 -4z m-750
-2 c3 -8 2 -12 -4 -9 -6 3 -10 10 -10 16 0 14 7 11 14 -7z m-89 -33 c3 -5 2
-12 -3 -15 -5 -3 -9 1 -9 9 0 17 3 19 12 6z m80 -1 c3 -6 -1 -7 -9 -4 -18 7
-21 14 -7 14 6 0 13 -4 16 -10z m805 -35 c-8 -9 -7 -17 5 -28 9 -10 11 -18 5
-22 -13 -8 -32 4 -24 16 3 5 0 17 -7 25 -10 13 -10 17 1 24 19 12 33 1 20 -15z
m-870 -5 c0 -5 -2 -10 -4 -10 -3 0 -8 5 -11 10 -3 6 -1 10 4 10 6 0 11 -4 11
-10z m58 -25 c-3 -3 -9 2 -12 12 -6 14 -5 15 5 6 7 -7 10 -15 7 -18z m499 -9
c0 -8 -6 -12 -15 -9 -11 5 -11 7 0 14 7 5 13 9 14 9 0 0 1 -6 1 -14z m325 -51
c11 -14 10 -19 -8 -41 -15 -18 -15 -18 -5 3 14 29 14 40 -1 25 -7 -7 -17 -12
-22 -12 -6 0 -3 5 7 11 18 10 18 12 0 32 -18 21 -18 21 2 7 11 -8 23 -19 27
-25z m-831 -2 c13 -16 12 -17 -3 -4 -10 7 -18 15 -18 17 0 8 8 3 21 -13z m523
-9 c3 -8 2 -12 -4 -9 -6 3 -10 10 -10 16 0 14 7 11 14 -7z m-314 -4 c0 -5 -5
-10 -11 -10 -5 0 -7 5 -4 10 3 6 8 10 11 10 2 0 4 -4 4 -10z m-263 -25 c0 -8
-4 -12 -9 -9 -5 3 -6 10 -3 15 9 13 12 11 12 -6z m568 9 c13 -5 14 -9 4 -15
-10 -6 -8 -14 11 -36 14 -15 17 -22 8 -14 -9 7 -21 10 -25 8 -5 -3 -9 2 -9 11
-1 9 -4 25 -9 35 -8 19 -5 20 20 11z m310 -64 c3 -5 1 -10 -4 -10 -6 0 -11 5
-11 10 0 6 2 10 4 10 3 0 8 -4 11 -10z m-1246 -14 c9 -11 9 -16 0 -22 -7 -4
-9 -3 -5 4 3 6 -2 15 -11 21 -10 6 -13 11 -7 11 6 0 17 -6 23 -14z m1286 -6
c3 -5 -1 -10 -9 -10 -9 0 -16 5 -16 10 0 6 4 10 9 10 6 0 13 -4 16 -10z m-845
-15 c0 -2 -6 -8 -13 -14 -10 -8 -14 -7 -14 2 0 8 6 14 14 14 7 0 13 -1 13 -2z
m-364 -72 c1 -7 -2 -11 -7 -7 -5 3 -7 9 -4 14 3 5 -4 11 -15 15 -11 3 -20 13
-20 21 0 17 43 -23 46 -43z m335 10 c13 -16 12 -17 -3 -4 -10 7 -18 15 -18 17
0 8 8 3 21 -13z m559 2 c-9 -10 -9 -15 -1 -16 26 -3 30 -4 37 -11 3 -4 -4 -5
-16 -3 -34 7 -48 24 -30 35 21 14 24 12 10 -5z m-550 -41 c0 -8 -19 -13 -24
-6 -3 5 1 9 9 9 8 0 15 -2 15 -3z m-295 -24 c10 -11 21 -17 25 -15 5 3 7 -3 6
-12 -2 -9 -8 -19 -14 -21 -11 -3 -13 1 -12 23 1 11 -25 33 -32 28 -5 -2 -8 1
-8 6 0 17 15 13 35 -9z m214 -17 c-8 -9 -8 -13 0 -13 6 0 11 -5 11 -12 0 -9
-3 -9 -12 0 -17 17 -18 39 -2 39 10 0 11 -4 3 -14z m48 -13 c-1 -12 -10 -29
-22 -38 l-20 -17 20 24 c11 13 19 25 18 27 -5 7 -3 24 1 24 3 0 4 -9 3 -20z
m43 -4 c0 -2 -7 -7 -16 -10 -8 -3 -12 -2 -9 4 6 10 25 14 25 6z m720 -10 c0
-2 -8 -10 -17 -17 -16 -13 -17 -12 -4 4 13 16 21 21 21 13z m-817 -31 c-3 -8
-10 -15 -15 -15 -7 0 -6 5 1 13 6 8 7 18 3 22 -4 5 -2 5 5 1 7 -4 10 -13 6
-21z m717 19 c0 -8 -19 -13 -24 -6 -3 5 1 9 9 9 8 0 15 -2 15 -3z m-1206 -55
c-3 -5 -10 -7 -15 -3 -5 3 -7 10 -3 15 3 5 10 7 15 3 5 -3 7 -10 3 -15z m498
-1 c-7 -7 -12 -8 -12 -2 0 14 12 26 19 19 2 -3 -1 -11 -7 -17z m73 13 c-9 -8
-36 -10 -30 -2 2 4 11 8 20 8 8 0 13 -3 10 -6z m-530 -41 c-2 -29 -10 -33 -26
-13 -8 9 -9 14 -3 10 7 -4 14 0 18 8 8 21 13 19 11 -5z m320 10 c3 -6 -1 -7
-9 -4 -18 7 -21 14 -7 14 6 0 13 -4 16 -10z m194 -6 c-7 -9 -14 -23 -15 -31
-2 -8 -5 -18 -8 -21 -4 -3 -5 4 -3 15 3 20 24 53 34 53 3 0 -1 -7 -8 -16z m31
-22 c0 -5 -7 -9 -15 -9 -8 0 -12 4 -9 9 3 4 9 8 15 8 5 0 9 -4 9 -8z m-531
-24 c-16 -31 -16 -31 -23 -13 -3 9 -2 14 3 11 5 -3 11 1 15 9 3 8 8 15 11 15
3 0 0 -10 -6 -22z m358 -4 c2 -13 1 -15 -4 -4 -3 8 -11 19 -17 23 -7 6 -6 7 4
4 8 -2 16 -12 17 -23z m37 -36 c-10 -13 -19 -24 -19 -25 -1 -1 -7 8 -14 20
-13 19 -12 21 1 9 13 -10 18 -9 28 3 7 8 15 15 18 15 3 0 -3 -10 -14 -22z
m108 7 c2 3 5 -2 5 -10 0 -19 0 -19 -23 7 -12 14 -13 18 -3 10 9 -6 18 -10 21
-7z m-409 -50 c-3 -9 -8 -14 -10 -11 -3 3 -2 9 2 15 9 16 15 13 8 -4z m452 6
c3 -5 2 -12 -3 -15 -5 -3 -9 1 -9 9 0 17 3 19 12 6z m-479 -27 c-5 -13 -1 -15
21 -10 27 5 27 5 5 -6 -25 -12 -50 1 -38 21 11 17 19 13 12 -5z m90 -52 c13
-20 13 -21 -1 -16 -8 3 -15 11 -15 18 0 6 -8 12 -19 13 -14 1 -18 -4 -15 -20
4 -21 4 -21 -5 -2 -4 11 -7 23 -4 27 8 14 43 2 59 -20z m-39 -26 c14 20 14 22
4 -35 -2 -9 -41 33 -41 43 0 6 6 2 12 -8 11 -19 11 -19 25 0z m77 -18 c-3 -4
-9 -8 -15 -8 -5 0 -9 4 -9 8 0 5 7 9 15 9 8 0 12 -4 9 -9z m-54 -28 c-24 -15
-36 -11 -14 4 10 8 21 12 24 10 2 -3 -2 -9 -10 -14z m64 8 c-5 -7 -2 -9 9 -5
11 4 15 1 12 -13 -2 -12 3 -21 16 -25 11 -4 18 -9 16 -12 -9 -8 -48 18 -42 28
4 5 -1 9 -9 9 -17 0 -21 12 -9 23 10 11 15 8 7 -5z m-34 -13 c0 -8 -4 -15 -10
-15 -5 0 -7 7 -4 15 4 8 8 15 10 15 2 0 4 -7 4 -15z m510 -19 c0 -3 -4 -8 -10
-11 -5 -3 -10 -1 -10 4 0 6 5 11 10 11 6 0 10 -2 10 -4z m-423 -58 c1 -10 -2
-18 -8 -18 -5 0 -8 5 -6 11 1 6 -4 14 -12 17 -9 3 -11 0 -6 -8 5 -9 4 -11 -4
-6 -16 10 -5 25 17 23 10 0 19 -9 19 -19z m-35 -22 c7 4 8 2 4 -5 -9 -13 -26
-5 -25 12 0 9 2 8 6 -1 2 -6 10 -9 15 -6z m61 -1 c-3 -9 -8 -14 -10 -11 -3 3
-2 9 2 15 9 16 15 13 8 -4z m53 -8 c4 -3 -3 -5 -15 -2 -16 3 -21 -1 -22 -18 0
-12 -3 -16 -6 -9 -12 30 21 52 43 29z m-89 -14 c-9 -2 -14 -9 -11 -15 4 -7 2
-8 -5 -4 -15 10 -4 26 17 25 15 -1 15 -2 -1 -6z m17 -43 c-6 -6 -10 -2 -11 12
-2 16 1 18 10 9 7 -7 8 -14 1 -21z m98 11 c-4 -10 -7 -11 -10 -3 -2 7 -9 9
-14 6 -6 -4 -8 -3 -5 3 10 16 36 11 29 -6z m-6 -33 c5 -7 3 -8 -5 -4 -15 10
-11 -25 4 -36 6 -5 6 -8 -1 -8 -6 0 -19 10 -30 22 -10 12 -14 18 -8 15 7 -4
14 0 18 8 7 18 12 19 22 3z m271 -23 c0 -8 -4 -12 -9 -9 -4 3 -8 9 -8 15 0 5
4 9 8 9 5 0 9 -7 9 -15z m-287 -35 c12 -7 10 -9 -8 -7 -12 0 -22 5 -22 9 0 11
12 10 30 -2z m305 0 c3 -5 1 -10 -4 -10 -6 0 -11 5 -11 10 0 6 2 10 4 10 3 0
8 -4 11 -10z m-292 -28 c2 7 7 10 11 7 4 -3 0 -11 -7 -18 -11 -9 -17 -7 -28 6
-13 16 -12 17 3 5 13 -10 17 -10 21 0z m257 -116 c0 -3 -4 -8 -10 -11 -5 -3
-10 -1 -10 4 0 6 5 11 10 11 6 0 10 -2 10 -4z m-159 -29 c-10 -9 -11 -8 -5 6
3 10 9 15 12 12 3 -3 0 -11 -7 -18z m32 8 c-3 -9 -8 -14 -10 -11 -3 3 -2 9 2
15 9 16 15 13 8 -4z"/>
<path d="M2535 3239 c-10 -15 3 -25 16 -12 7 7 7 13 1 17 -6 3 -14 1 -17 -5z"/>
<path d="M2515 3200 c-3 -5 -2 -10 4 -10 5 0 13 5 16 10 3 6 2 10 -4 10 -5 0
-13 -4 -16 -10z"/>
<path d="M1830 3149 c0 -5 5 -7 10 -4 6 3 10 8 10 11 0 2 -4 4 -10 4 -5 0 -10
-5 -10 -11z"/>
<path d="M1814 3046 c0 -28 3 -32 21 -27 16 4 17 6 3 9 -11 2 -15 10 -12 28 2
13 1 24 -4 24 -4 0 -8 -15 -8 -34z"/>
<path d="M1839 2931 c12 -8 12 -12 2 -25 -18 -21 -7 -21 14 0 13 14 14 19 3
25 -7 5 -17 9 -23 9 -5 0 -4 -4 4 -9z"/>
<path d="M1852 2805 c4 -4 3 -14 -3 -21 -7 -9 -6 -14 3 -20 7 -4 10 -4 6 1 -4
4 -3 14 3 21 7 9 6 14 -3 20 -7 4 -10 4 -6 -1z"/>
<path d="M2025 3267 c0 -14 6 -23 16 -23 12 0 13 5 5 23 -14 29 -21 29 -21 0z"/>
<path d="M1962 3257 c-6 -7 -7 -18 -3 -25 5 -9 11 -5 19 13 12 26 2 34 -16 12z"/>
<path d="M1860 2704 c8 -10 15 -20 16 -22 1 -2 4 1 7 5 3 5 -4 15 -16 23 -21
12 -21 12 -7 -6z"/>
<path d="M1540 3379 c0 -5 -4 -8 -8 -5 -4 2 -14 1 -22 -5 -11 -6 -12 -9 -2 -9
7 0 10 -5 6 -12 -4 -6 -3 -8 3 -5 6 4 13 0 17 -8 7 -18 -22 -48 -37 -38 -9 5
-9 3 -1 -8 13 -18 12 -45 -2 -42 -6 1 -11 -5 -11 -13 0 -12 3 -12 17 1 9 8 20
12 23 8 4 -3 7 -1 7 5 0 7 -6 12 -12 12 -9 0 -8 4 2 10 13 8 13 10 1 10 -12 0
-12 2 1 13 18 15 48 58 48 70 0 5 -8 6 -17 3 -15 -5 -15 -4 1 9 17 13 18 15 3
15 -9 0 -17 -5 -17 -11z m15 -21 c5 4 5 1 1 -6 -6 -10 -11 -10 -22 -1 -8 6
-14 14 -14 16 0 3 6 0 13 -6 8 -6 18 -7 22 -3z"/>
<path d="M4644 3239 c-27 -17 -70 -50 -95 -73 -78 -71 -258 -202 -484 -353
-143 -96 -377 -266 -418 -304 -22 -20 -185 -130 -362 -243 -66 -42 -159 -106
-207 -141 -48 -36 -137 -90 -198 -121 -60 -31 -110 -60 -110 -64 0 -4 -44 -36
-97 -71 -54 -35 -101 -68 -105 -74 -9 -13 11 -37 25 -28 6 3 7 1 3 -6 -5 -7
-32 -23 -62 -37 -50 -23 -67 -45 -44 -59 24 -15 399 187 585 315 120 83 306
219 315 231 3 4 86 60 185 125 177 116 345 232 355 244 9 11 366 244 475 310
59 36 117 73 129 82 30 25 36 30 86 68 24 19 60 49 78 66 28 25 31 32 19 42
-11 10 -19 8 -40 -8 -14 -11 -29 -20 -33 -20 -5 0 23 23 61 51 39 28 72 55 74
61 5 16 -21 28 -40 17 -12 -6 -19 -4 -23 6 -8 21 -15 19 -72 -16z m-1734
-1273 c0 -2 -7 -7 -16 -10 -8 -3 -12 -2 -9 4 6 10 25 14 25 6z m-50 -26 c-35
-24 -54 -31 -30 -11 14 11 30 21 35 21 6 0 3 -5 -5 -10z"/>
<path d="M1416 3203 c-4 -10 -4 -14 0 -10 4 4 13 -1 20 -11 7 -9 15 -14 18
-11 3 3 -2 16 -13 28 -17 19 -19 20 -25 4z"/>
<path d="M2830 3109 c0 -5 5 -7 10 -4 6 3 10 8 10 11 0 2 -4 4 -10 4 -5 0 -10
-5 -10 -11z"/>
<path d="M1456 3098 c3 -5 10 -6 15 -3 13 9 11 12 -6 12 -8 0 -12 -4 -9 -9z"/>
<path d="M2275 2550 c-3 -5 -1 -10 4 -10 6 0 11 5 11 10 0 6 -2 10 -4 10 -3 0
-8 -4 -11 -10z"/>
<path d="M1550 2495 c-11 -14 -7 -19 13 -16 11 2 9 -17 -3 -22 -6 -3 -5 -4 2
-3 14 3 20 44 8 51 -4 3 -13 -2 -20 -10z"/>
<path d="M1243 2435 c0 -8 4 -12 9 -9 5 3 6 10 3 15 -9 13 -12 11 -12 -6z"/>
<path d="M1225 2330 c-3 -6 1 -7 9 -4 18 7 21 14 7 14 -6 0 -13 -4 -16 -10z"/>
<path d="M1969 2315 c-6 -22 -4 -33 8 -53 8 -12 11 -27 8 -32 -3 -5 -1 -12 5
-15 6 -4 9 -1 8 6 -2 7 3 13 11 14 8 0 16 6 19 13 2 8 -5 11 -20 10 -14 -2
-23 3 -24 12 -1 8 -3 20 -4 25 -1 6 -2 13 -1 18 1 8 -8 10 -10 2z"/>
<path d="M511 2156 c-9 -11 -9 -16 1 -22 7 -4 10 -4 6 1 -4 4 -3 14 3 22 6 7
9 13 6 13 -2 0 -10 -6 -16 -14z"/>
<path d="M1670 2069 c0 -5 5 -7 10 -4 6 3 10 8 10 11 0 2 -4 4 -10 4 -5 0 -10
-5 -10 -11z"/>
<path d="M2085 1930 c-3 -5 -1 -10 4 -10 6 0 11 5 11 10 0 6 -2 10 -4 10 -3 0
-8 -4 -11 -10z"/>
<path d="M668 1876 c4 -6 7 -14 7 -18 0 -3 3 -10 8 -14 4 -4 6 4 5 18 -1 13
-8 25 -15 25 -6 0 -9 -5 -5 -11z"/>
<path d="M1495 1870 c3 -5 8 -10 11 -10 2 0 4 5 4 10 0 6 -5 10 -11 10 -5 0
-7 -4 -4 -10z"/>
<path d="M1752 1751 c-11 -7 -11 -9 0 -14 9 -3 15 1 15 9 0 8 -1 14 -1 14 -1
0 -7 -4 -14 -9z"/>
<path d="M1486 1668 c3 -5 10 -6 15 -3 13 9 11 12 -6 12 -8 0 -12 -4 -9 -9z"/>
<path d="M1789 1638 c-6 -18 -4 -56 3 -52 4 3 8 0 8 -6 0 -6 5 -8 12 -4 8 5 6
11 -5 19 -11 8 -13 15 -6 22 8 8 7 13 0 17 -6 4 -11 6 -12 4z"/>
<path d="M2035 1410 c-4 -6 -10 -8 -15 -5 -5 3 -11 1 -15 -5 -4 -6 -11 -7 -17
-4 -7 4 -8 2 -4 -4 4 -7 2 -12 -3 -12 -6 0 -11 6 -11 13 0 6 -5 4 -11 -6 -6
-10 -9 -21 -6 -23 7 -8 57 18 57 30 0 5 7 1 16 -10 8 -10 13 -13 9 -6 -4 7 -1
19 5 27 7 8 10 15 7 15 -3 0 -9 -5 -12 -10z"/>
<path d="M2079 1403 c-13 -16 -12 -17 4 -4 9 7 17 15 17 17 0 8 -8 3 -21 -13z"/>
<path d="M1158 1363 c6 -2 9 -10 6 -15 -4 -7 -2 -8 5 -4 13 9 5 26 -12 25 -9
0 -8 -2 1 -6z"/>
</g>
</svg>
